<svg viewBox="0 0 900 500" xmlns="http://www.w3.org/2000/svg" font-family="Segoe UI, Arial, sans-serif">
  <rect width="900" height="500" fill="#1e1e2e"/>
  <!-- Gradient top bar -->
  <defs>
    <linearGradient id="hdrGrad" x1="0" y1="0" x2="1" y2="0">
      <stop offset="0%" stop-color="#89b4fa"/>
      <stop offset="50%" stop-color="#cba6f7"/>
      <stop offset="100%" stop-color="#f38ba8"/>
    </linearGradient>
  </defs>
  <rect width="900" height="6" fill="url(#hdrGrad)"/>
  <rect y="6" width="900" height="64" fill="#313244"/>
  <text x="40" y="32" font-size="13" fill="#6c7086">Slide 10</text>
  <text x="40" y="58" font-size="26" font-weight="bold" fill="#cdd6f4">Autoři &amp; technické info</text>

  <!-- Project card -->
  <rect x="40" y="90" width="820" height="78" rx="10" fill="#181825" stroke="#45475a" stroke-width="1"/>
  <text x="60" y="118" font-size="13" fill="#6c7086">Projekt</text>
  <text x="60" y="142" font-size="20" font-weight="bold" fill="#cdd6f4">Evidence školního majetku</text>
  <text x="740" y="118" font-size="13" fill="#6c7086" text-anchor="end">Škola</text>
  <text x="740" y="142" font-size="20" font-weight="bold" fill="#89b4fa" text-anchor="end">SSSVT</text>

  <!-- Repo -->
  <rect x="40" y="182" width="820" height="58" rx="10" fill="#313244" stroke="#45475a" stroke-width="1"/>
  <text x="60" y="207" font-size="13" fill="#6c7086">Repozitář</text>
  <text x="60" y="228" font-size="15" fill="#89b4fa">🔗 github.com/neneKosiiic/School-Property-Evidence</text>

  <!-- Tech stack badges -->
  <text x="60" y="270" font-size="13" fill="#6c7086">Stack</text>

  <rect x="60" y="280" width="60" height="30" rx="15" fill="#89b4fa" opacity="0.2" stroke="#89b4fa" stroke-width="1.5"/>
  <text x="90" y="300" font-size="12" fill="#89b4fa" text-anchor="middle">C#</text>

  <rect x="132" y="280" width="80" height="30" rx="15" fill="#89b4fa" opacity="0.2" stroke="#89b4fa" stroke-width="1.5"/>
  <text x="172" y="300" font-size="12" fill="#89b4fa" text-anchor="middle">Blazor</text>

  <rect x="224" y="280" width="120" height="30" rx="15" fill="#cba6f7" opacity="0.2" stroke="#cba6f7" stroke-width="1.5"/>
  <text x="284" y="300" font-size="12" fill="#cba6f7" text-anchor="middle">ASP.NET Core</text>

  <rect x="356" y="280" width="70" height="30" rx="15" fill="#f9e2af" opacity="0.2" stroke="#f9e2af" stroke-width="1.5"/>
  <text x="391" y="300" font-size="12" fill="#f9e2af" text-anchor="middle">MySQL</text>

  <rect x="438" y="280" width="50" height="30" rx="15" fill="#fab387" opacity="0.2" stroke="#fab387" stroke-width="1.5"/>
  <text x="463" y="300" font-size="12" fill="#fab387" text-anchor="middle">JWT</text>

  <rect x="500" y="280" width="70" height="30" rx="15" fill="#f38ba8" opacity="0.2" stroke="#f38ba8" stroke-width="1.5"/>
  <text x="535" y="300" font-size="12" fill="#f38ba8" text-anchor="middle">BCrypt</text>

  <rect x="582" y="280" width="140" height="30" rx="15" fill="#a6e3a1" opacity="0.2" stroke="#a6e3a1" stroke-width="1.5"/>
  <text x="652" y="300" font-size="12" fill="#a6e3a1" text-anchor="middle">Entity Framework</text>

  <rect x="734" y="280" width="55" height="30" rx="15" fill="#a6adc8" opacity="0.2" stroke="#a6adc8" stroke-width="1.5"/>
  <text x="761" y="300" font-size="12" fill="#a6adc8" text-anchor="middle">.NET 10</text>

  <!-- Architecture summary mini -->
  <rect x="40" y="330" width="820" height="100" rx="10" fill="#181825" stroke="#45475a" stroke-width="1"/>
  <text x="450" y="355" font-size="13" font-weight="bold" fill="#cdd6f4" text-anchor="middle">Architektura v kostce</text>

  <rect x="75" y="365" width="150" height="40" rx="8" fill="#313244" stroke="#89b4fa" stroke-width="1.5"/>
  <text x="150" y="390" font-size="12" fill="#89b4fa" text-anchor="middle">Blazor Frontend</text>

  <text x="240" y="390" font-size="14" fill="#6c7086">──── HTTP ────</text>

  <rect x="355" y="365" width="160" height="40" rx="8" fill="#313244" stroke="#cba6f7" stroke-width="1.5"/>
  <text x="435" y="390" font-size="12" fill="#cba6f7" text-anchor="middle">ASP.NET Core API</text>

  <text x="525" y="390" font-size="14" fill="#6c7086">──── EF ────</text>

  <rect x="630" y="365" width="150" height="40" rx="8" fill="#313244" stroke="#f9e2af" stroke-width="1.5"/>
  <text x="705" y="390" font-size="12" fill="#f9e2af" text-anchor="middle">MySQL DB</text>

  <!-- Bottom gradient bar -->
  <rect y="494" width="900" height="6" fill="url(#hdrGrad)"/>

  <text x="450" y="478" font-size="12" fill="#585b70" text-anchor="middle">© 2025 SSSVT — Projekt Evidence školního majetku</text>
</svg>
